# xmcd CD database file
#
# Track frame offsets:
#	183
#	30185
#	50953
#	85873
#	103440
#	129493
#	142553
#
# Disc length: 2254 seconds
#
# Revision: 0
# Processed by: cddbd v1.5.2PL0 Copyright (c) Steve Scherf et al.
# Submitted via: CDex 1.70beta1
#
DISCID=5608cc07
DTITLE=Stan Getz - Long Island Sound Stan Getz Live 1952 Vol 2
DYEAR=1900
DGENRE=Jazz
TTITLE0=Just You Just Me
TTITLE1=Yesterdays
TTITLE2=Long Island Sound
TTITLE3='Round About Midnight
TTITLE4=Move
TTITLE5=My Old Flame
TTITLE6=I'll Remember April
EXTD=
EXTT0=
EXTT1=
EXTT2=
EXTT3=
EXTT4=
EXTT5=
EXTT6=
PLAYORDER=
